<?xml version="1.0" encoding="utf-8"?>
<!-- Generator: Adobe Illustrator 26.4.1, SVG Export Plug-In . SVG Version: 6.00 Build 0)  -->
<svg version="1.1" id="Layer_1" xmlns="http://www.w3.org/2000/svg" xmlns:xlink="http://www.w3.org/1999/xlink" x="0px" y="0px"
	 viewBox="0 0 555 330" style="enable-background:new 0 0 555 330;" xml:space="preserve">
<style type="text/css">
	.st0{opacity:0.5;fill:#4F344B;enable-background:new    ;}
	.st1{opacity:0.2;fill:#4F344B;enable-background:new    ;}
	.st2{opacity:0.4;}
	.st3{fill:#49B187;}
	.st4{fill:#FFFFFF;}
	.st5{fill:#FA5143;}
	.st6{fill:#A08072;}
	.st7{fill:#F2F2F2;}
	.st8{fill:#F5F5F5;}
	.st9{fill:#FAB9AF;}
	.st10{fill:#4F344B;}
	.st11{fill:#FA968C;}
</style>
<rect x="0" y="-0.3" class="st0" width="555" height="330"/>
<g>
	<path class="st1" d="M23.4,277.4c0-140.3,113.8-254.1,254.1-254.1s254.1,113.8,254.1,254.1"/>
	<g>
		<g class="st2">
			<path class="st3" d="M83.8,229.3c3.8-0.2,7.6-0.4,11.5-0.7c1.6-0.1,3.2-0.2,4.5-0.9c3.4-2,3.1-7.2,4-11.2
				c1.5-6.8,8.1-11.4,15.2-10.7c4.8,0.5,9.5,3.4,12.8,7.4c3.4,3.9,5.5,9.1,5.2,13.9c-0.4,7.2-6,12.9-13,13.3
				c-4.1,0.2-9.2-1-11.7,2.1c-1,1.2-1.3,2.7-1.7,4.3c-0.8,3.7-1.7,7.5-2.5,11.2c-0.5,2.4-1.1,4.8-2.5,6.6c-1.8,2.3-4.8,3.4-7.9,3.5
				s-6.2-0.5-9.4-1.1c-2-0.4-4.2-0.8-5.9-0.1c-2.2,0.8-3.4,3.1-3.9,5.4s-0.5,4.8-0.9,7.2c-1.2,7.4-7.2,13.2-14.7,13.5
				c-5.7,0.2-11.8-3-15.6-8c-4.2-4.5-6.4-11.1-5.3-16.6c1.5-7.3,8.2-12.2,15.7-12.3c2.4,0,4.9,0.4,7.3,0.3c2.4-0.1,4.8-1,6-3
				c1-1.7,0.9-3.8,0.8-5.9c-0.1-3.2-0.2-6.4,0.4-9.4c0.7-3,2.2-5.8,4.7-7.2C78.9,229.6,81.4,229.5,83.8,229.3z"/>
		</g>
		<path class="st4" d="M75.4,261.1c0,0.1,0,0.1,0.1,0.2l0,0c-0.3,0-0.4,0.4-0.3,0.5l-15.4,13h-0.1l0,0c1-4.8,1.9-9.6,2.9-14.3
			c0.1-0.4-0.5-0.3-0.6,0c-1,4.9-2,9.9-3,14.8c0,0.1,0,0.1,0,0.1c-4.3,3.7-8.6,7.4-13,11c-0.3,0.3,0,0.7,0.3,0.4
			c4.5-3.8,9-7.7,13.5-11.5l13.9-0.4c0.4,0,0.5-0.6,0.1-0.6c-4.4,0.1-8.9,0.3-13.3,0.4c0.8-0.7,1.6-1.3,2.4-2
			c4.3-3.7,8.6-7.3,12.9-11c4.7,0.2,9.4,0.4,14.2,0.5c0.4,0,0.5-0.6,0.1-0.6c-4.5-0.2-9.1-0.3-13.6-0.5l10.7-9.1c4.8,0,9.7,0,14.5,0
			c0.4,0,0.5-0.6,0.1-0.6c-4.6,0-9.3,0-13.9,0l12.8-10.9l0.1,0.1c3.5,0.3,7,0.2,10.6-0.2c0.4,0,0.5-0.6,0.1-0.6
			c-3.5,0.4-6.9,0.5-10.3,0.2l19.7-16.7c0.3-0.3,0-0.7-0.3-0.4c-5.5,4.7-11,9.4-16.5,14.1l-2.6,2.2c0.3-2.9,0.7-5.8,1-8.7
			c0-0.4-0.5-0.3-0.6,0c-0.4,3.1-0.7,6.2-1.1,9.3c-4.4,3.7-8.8,7.5-13.1,11.2c0.9-4.3,1.8-8.6,2.7-13c0.1-0.4-0.5-0.3-0.6,0
			c-0.9,4.5-1.9,9-2.8,13.6l0,0c-3.7,3.2-7.5,6.4-11.2,9.6c0,0,0,0-0.1,0c0.1,0,0.3-0.2,0.3-0.3c0.4-5.3,1.3-10.6,2.7-16
			c0.1-0.4-0.5-0.3-0.6,0C76.6,250.4,75.7,255.8,75.4,261.1z"/>
	</g>
	<g>
		<g>
			<path class="st5" d="M34.4,243.6c3.1-4.9,7.6-8.8,12.2-11c1.6-0.8,3.4-1.5,4.7-3.2c0.8-1.1,1.2-2.4,1.5-3.7
				c0.9-4.3,0.5-8.8,3-12.6c2-3,5.1-4.5,8-5.1c2.8-0.7,5.7-0.8,8.5-2.2c1.2-0.6,2.4-1.4,3.3-2.5c4.2-5,1.6-12.6,5.1-18.2
				c1.6-2.6,4.3-4.2,6.8-5.1c2.5-0.8,5-1.1,7.5-2.1c2.7-1.1,5.4-3.1,7.6-5.7c-1,3.2-1.4,6.6-0.9,9.5c0.4,2.6,1.5,4.9,2.1,7.5
				s0.6,5.6-0.8,8.4c-3,5.9-10.8,7.7-12.9,13.8c-0.5,1.4-0.6,2.9-0.4,4.2c0.3,3.1,1.7,5.6,2.6,8.4s1.3,6.2-0.2,9.5
				c-1.9,4.1-6,6.1-9.2,9.1c-0.9,0.9-1.9,1.9-2.4,3.2c-0.8,1.9-0.5,3.8-0.3,5.7c0.5,5.1-0.5,10.9-3.1,16.2c-2.6,5.2-6.8,9.8-11.4,12
				c-6.4,3-12.7,1.1-17.6-2.1l-7-3.9c-5.3-2.6-10.2-6.9-11-14C29.5,254.5,31.3,248.5,34.4,243.6z"/>
		</g>
		<path class="st4" d="M42.5,239.9c4.3,7.6,8.1,15.4,11.4,23.5c0,0.1,0.1,0.1,0.2,0.2c-3.8,7.4-7.7,14.8-11.5,22.1
			c-0.2,0.4,0.4,0.7,0.6,0.3c3.9-7.5,7.8-14.9,11.6-22.4c7.8-2.2,15.5-4.5,23.3-6.7c0.4-0.1,0.2-0.7-0.2-0.6
			c-7.6,2.2-15.1,4.4-22.7,6.6c0.1-0.2,0.2-0.4,0.3-0.7l7.8-15c5.1-0.7,10.2-1.4,15.3-2c0.4-0.1,0.4-0.7,0-0.6
			c-5,0.7-9.9,1.3-14.9,2l6.7-13l0,0c6.2-1.5,12.4-3,18.5-4.4c0.4-0.1,0.2-0.7-0.2-0.6c-6,1.4-12,2.9-18,4.3l7.6-14.6
			c3.2-1.3,6.2-2.9,9.1-4.8c0.3-0.2,0-0.8-0.3-0.6c-2.6,1.8-5.4,3.2-8.3,4.4l6.3-12.1c2.5-0.6,5-1.3,7.4-1.9
			c0.4-0.1,0.2-0.7-0.2-0.6c-2.3,0.6-4.6,1.2-6.9,1.8l3.4-6.5c0,0,0,0,0.1,0c3.8-1.7,7.6-3.4,11.5-5.2c0.4-0.2,0-0.7-0.3-0.6
			c-3.6,1.6-7.2,3.2-10.7,4.8c3.2-6.1,6.3-12.2,9.5-18.3c0.2-0.4-0.4-0.7-0.6-0.3c-3.3,6.3-6.5,12.5-9.8,18.8
			c-0.2-4.8-0.5-9.6-0.7-14.5c0-0.4-0.7-0.4-0.6,0c0.3,5,0.5,10,0.8,15c0,0.1,0.1,0.2,0.2,0.3c-0.7,1.4-1.5,2.8-2.2,4.2
			c-0.4,0.8-0.8,1.6-1.2,2.4c-0.9-2.8-1.8-5.5-2.7-8.3c-0.1-0.4-0.7-0.2-0.6,0.2c1,2.9,1.9,5.9,2.9,8.8c0,0,0,0.1,0.1,0.1l-6.3,12.1
			c-0.8-3.7-1.5-7.4-2.3-11.1c-0.1-0.4-0.7-0.2-0.6,0.2c0.8,3.9,1.6,7.8,2.4,11.7l0,0c-2.4,4.7-4.9,9.4-7.3,14.1
			c-2.1-5.7-4.2-11.4-6.1-17.1c-0.1-0.4-0.7-0.2-0.6,0.2c1.9,5.8,4,11.5,6.1,17.2c0.1,0.2,0.2,0.2,0.3,0.2
			c-2.3,4.4-4.5,8.7-6.8,13.1c-2.6-6.1-5.1-12.1-7.7-18.2c-0.2-0.4-0.7-0.1-0.6,0.3c2.6,6.2,5.2,12.3,7.9,18.5c0,0,0,0,0,0.1
			c-2.8,5.4-5.6,10.8-8.4,16.1c-3.3-8-7.1-15.8-11.4-23.4C42.8,239.2,42.3,239.6,42.5,239.9z"/>
	</g>
	<g>
		<g class="st2">
			<path class="st3" d="M27,251.2c0-5.8,1.7-11.5,4.4-15.9c1-1.6,2.1-3.2,2.2-5.2c0.1-1.3-0.3-2.7-0.7-3.9
				c-1.5-4.1-4.3-7.7-4.2-12.2c0.1-3.6,1.9-6.5,4-8.6c2-2.1,4.4-3.7,6-6.4c0.7-1.1,1.3-2.4,1.5-3.9c0.9-6.5-5.4-11.5-5.5-18.1
				c0-3.1,1.4-5.9,3-7.9c1.6-2.1,3.6-3.6,5.1-5.8c1.7-2.4,2.9-5.5,3.4-8.9c0.9,3.3,2.4,6.3,4.3,8.5c1.8,2,3.9,3.4,5.7,5.2
				c1.9,1.9,3.6,4.4,3.9,7.5c0.7,6.6-5,12.3-3.5,18.6c0.4,1.5,1.1,2.7,1.9,3.8c1.9,2.5,4.4,3.9,6.7,5.7c2.3,1.9,4.4,4.6,4.9,8.1
				c0.6,4.5-1.8,8.4-2.9,12.6c-0.3,1.3-0.5,2.6-0.3,4c0.4,2,1.6,3.5,2.8,5c3.1,4.1,5.4,9.5,6.1,15.3s-0.4,11.9-3.2,16.2
				c-3.8,6-10.1,7.7-16,7.7l-8,0.4c-5.8,0.6-12.3-0.4-16.7-5.9C28.7,263.1,27,257.1,27,251.2z"/>
		</g>
		<path class="st4" d="M31.8,243.9c7.7,4.1,15.1,8.7,22.3,13.7c0.1,0.1,0.2,0.1,0.2,0.1c0.7,8.3,1.4,16.6,2.2,24.9
			c0,0.4,0.7,0.4,0.6,0c-0.7-8.4-1.5-16.8-2.2-25.1c5.3-6.1,10.7-12.1,16-18.2c0.3-0.3-0.2-0.7-0.5-0.4
			c-5.2,5.9-10.4,11.8-15.6,17.7c0-0.2,0-0.5-0.1-0.7l-1.5-16.8c3.9-3.3,7.9-6.6,11.8-9.9c0.3-0.3,0-0.8-0.4-0.5
			c-3.8,3.2-7.7,6.5-11.5,9.7l-1.3-14.6l0,0c4.4-4.6,8.8-9.1,13.3-13.7c0.3-0.3-0.2-0.7-0.5-0.4c-4.3,4.4-8.6,8.9-12.9,13.3
			l-1.4-16.3c2-2.8,3.7-5.8,5.1-8.9c0.2-0.4-0.4-0.7-0.6-0.3c-1.3,2.9-2.8,5.6-4.6,8.2L49,192.1c1.8-1.9,3.5-3.7,5.3-5.6
			c0.3-0.3-0.2-0.7-0.5-0.4c-1.6,1.7-3.2,3.4-4.9,5.2l-0.6-7.3l0,0c2.3-3.5,4.6-7,6.9-10.5c0.2-0.3-0.3-0.6-0.6-0.3
			c-2.2,3.3-4.3,6.6-6.5,9.8c-0.6-6.8-1.2-13.7-1.8-20.5c0-0.4-0.7-0.4-0.6,0c0.6,7,1.2,14.1,1.8,21.1c-2.8-3.9-5.6-7.9-8.4-11.8
			c-0.2-0.3-0.8,0-0.5,0.4c2.9,4.1,5.8,8.2,8.7,12.2c0.1,0.1,0.2,0.1,0.3,0.1c0.1,1.6,0.3,3.2,0.4,4.8c0.1,0.9,0.2,1.8,0.2,2.7
			c-2.2-1.8-4.5-3.7-6.7-5.5c-0.3-0.3-0.7,0.2-0.4,0.5c2.4,2,4.8,3.9,7.1,5.9c0,0,0.1,0,0.1,0.1l1.2,13.6c-2.6-2.7-5.3-5.4-7.9-8.1
			c-0.3-0.3-0.7,0.2-0.4,0.5c2.8,2.9,5.6,5.7,8.4,8.6l0,0c0.5,5.3,0.9,10.6,1.4,15.8c-4.8-3.6-9.6-7.4-14.3-11.2
			c-0.3-0.3-0.7,0.2-0.4,0.5c4.7,3.8,9.5,7.6,14.4,11.2c0.1,0.1,0.3,0.1,0.4,0c0.4,4.9,0.8,9.8,1.3,14.7
			c-5.4-3.7-10.8-7.5-16.3-11.2c-0.3-0.2-0.6,0.3-0.3,0.6c5.5,3.8,11,7.6,16.5,11.4c0,0,0,0,0.1,0c0.5,6,1,12.1,1.6,18.1
			c-7.1-5-14.5-9.5-22.1-13.6C31.8,243.1,31.5,243.7,31.8,243.9z"/>
	</g>
	<g>
		<rect x="393.9" y="184.4" class="st6" width="9.1" height="45.4"/>
		<rect x="374" y="184.4" class="st6" width="12.4" height="45.4"/>
		<polygon class="st6" points="369.7,184.4 369.7,229.8 127.4,229.8 127.4,224.3 134.7,224.3 264.9,224.3 264.9,190.3 134.7,190.3 
			127.4,190.3 127.4,184.4 		"/>
		<path class="st7" d="M264.9,190.3v34H134.7c9.3-20.1,0-34,0-34H264.9L264.9,190.3z"/>
		<rect x="369.7" y="184.4" class="st7" width="4.3" height="45.4"/>
		<rect x="386.4" y="184.4" class="st7" width="7.5" height="45.4"/>
	</g>
	<g>
		<rect x="177.5" y="136.8" class="st3" width="4.5" height="47.6"/>
		<rect x="156.7" y="136.8" class="st3" width="7.8" height="47.6"/>
		<path class="st8" d="M241.4,142.9h187.2c0,0-9.8,14.6,0,35.7H241.4V142.9z"/>
		<rect x="164.5" y="136.8" class="st5" width="13" height="47.6"/>
		<rect x="147.1" y="136.8" class="st5" width="9.6" height="47.6"/>
		<polygon class="st5" points="436.3,178.6 436.3,184.4 408.2,184.4 182.1,184.4 182.1,136.8 382.7,136.8 436.3,136.8 436.3,142.9 
			428.5,142.9 241.4,142.9 241.4,178.6 428.5,178.6 		"/>
	</g>
	<g>
		<rect x="177.5" y="229.8" class="st3" width="4.5" height="47.6"/>
		<rect x="156.7" y="229.8" class="st3" width="7.8" height="47.6"/>
		<path class="st8" d="M241.4,235.9h187.2c0,0-9.8,14.6,0,35.7H241.4V235.9z"/>
		<rect x="164.5" y="229.8" class="st5" width="13" height="47.6"/>
		<rect x="147.1" y="229.8" class="st5" width="9.6" height="47.6"/>
		<polygon class="st5" points="436.3,271.6 436.3,277.4 408.2,277.4 182.1,277.4 182.1,229.8 382.7,229.8 436.3,229.8 436.3,235.9 
			428.5,235.9 241.4,235.9 241.4,271.6 428.5,271.6 		"/>
	</g>
	<path class="st7" d="M554,297.9c0,11.3-9.2,20.5-20.5,20.5h-512c-11.3,0-20.5-9.2-20.5-20.5l0,0c0-11.3,9.2-20.5,20.5-20.5h512
		C544.8,277.4,554,286.6,554,297.9L554,297.9z"/>
	<g>
		<polygon class="st9" points="438.7,158.1 448.2,91.2 473.8,87.7 487.2,157.6 		"/>
		<path class="st9" d="M458.5,261.7v7.5c0,1.5,0.2,3.1,0.6,4.5l0.7,2.3c0.5,1.9-0.9,3.8-2.9,3.8c-5.1,0-13.9,0-16.2,0
			c-0.4,0-0.7-0.2-0.8-0.6c-0.2-2.2,6.2-3.7,10.9-5.5c3.6-1.4,3.5-8,3-11.8c-0.2-1.4,1-2.7,2.5-2.6l0,0
			C457.6,259.4,458.5,260.5,458.5,261.7z"/>
		<path class="st9" d="M493.8,259.5l2.6,8.6c0.1,0.4,0.3,0.7,0.5,1.1l1.8,2.7c1.2,1.7,0.3,4.1-1.7,4.7c0,0-3.7,1.3-7.5,2.6
			c-3.9,1.3-8.8,0.2-8.8-0.8c0-2.3,2.1-0.5,5.7-2.9c1.2-0.8,2.4-1.6,3.5-2.5c3.1-2.4,0.4-8.6-1.5-12c-0.7-1.2,0-2.8,1.4-3.1l0.9-0.2
			C492.1,257.5,493.4,258.3,493.8,259.5z"/>
		<path class="st10" d="M467.2,158.7l-28.4-2.4c0,0-2.9,20.7,4.3,58.2c3.4,17.6,10.4,51.2,10.4,51.2c1.7,0.8,3.5,1,5.3,0.5
			c0,0,0.5-14.8,0.9-30.8c0.3-15.3,0.4-31.6,1.4-37C463.1,187.5,467.2,158.7,467.2,158.7z"/>
		<path class="st10" d="M461.4,159.1c-2.9,15.8-9.5,39.3,3.1,61.5c12.6,22.1,25.9,45.2,25.9,45.2c1.7,0.1,3.3-0.5,4.7-1.6
			c0,0-2.2-10-5.4-21.8c-3.7-13.4-8.3-29.2-7-37.4c2.5-15.4,5.3-35.9,4.5-45.9C486.3,149,462.9,150.8,461.4,159.1z"/>
		<path class="st4" d="M437.7,156.4l10.5-65.1l25.7-3.5l13.8,68.8c0.3,1.3-0.6,2.5-1.9,2.8c-4.8,0.9-16.3,2.8-29.2,2.8
			c-9.6,0-15-1.9-17.5-3.1C438,158.6,437.5,157.5,437.7,156.4z"/>
		<path class="st9" d="M488.5,181.6c0.4-1.7,0.6-3.4,0.8-4.1c0.1-0.3,0.6-0.9,0.7-1.1c0.4-0.6,1-1.4,1-2.1v-2.9
			c0-1.4,0.7-2.4,2.1-2.4l0,0c1.5,0,2.2,1.3,2,2.8v2c-0.1,1.2,0.3,2.3,0.6,3.5c0.7,2.3,0.1,5.1-0.6,7.3c-0.4,1.4-2.2,2.2-4.5,3.2
			c-1.2,0.5-3.1,0.9-2.4-0.5c0.6-1.2,4.1-2.9,3.1-6.6c-0.1-0.2-0.2-0.6-0.4-0.6c-0.7,0-0.8,1.5-1.2,2.3c-0.5,1.1-1.2,1.5-1.7,1.4
			C487.6,183.5,488.2,182.8,488.5,181.6z"/>
		<path class="st5" d="M465.8,91.8c0,4.7,0.9,9.3,2.5,13.8c3.1,8.6,7.8,24.9,5,39.3c-4,20.7-9.2,29.1-2.5,33.9s19.6-3.2,19.9-5.9
			c0.4-2.7-2.5-35.6-5.8-49.9s-12.4-34.8-12.4-34.8l-3.9,0.4C467.1,88.7,465.8,90.1,465.8,91.8L465.8,91.8z"/>
		<path class="st5" d="M478.7,127.5c-2.5-6.2-5.2-13.9-7.4-19.9c-1.6-4.4-1.8-8.3-1.8-12.9l3.4-7c0,0,8.8,20.9,12,35.1
			C488.3,137.2,481.9,135.7,478.7,127.5z"/>
		<path class="st5" d="M477.9,89.5c0,0,22.4,30.1,22.3,46.9c0,10.1-3.8,30.8-4.6,35.5c-0.1,0.6-0.6,1.1-1.2,1.1
			c-0.4,0-0.8,0.1-1.3,0.1c-0.4,0-1-0.1-1.5-0.1c-0.8-0.1-1.5-0.9-1.4-1.7c0.1-6.3,0.5-31.2-1.1-36.1c-1.9-5.7-20.6-32.9-20.9-38.9
			C467.7,90.2,472.4,84.8,477.9,89.5z"/>
		<path class="st5" d="M455.1,90.3c0,0-4.5,9.6-2.9,23.4s5.2,55.9-7.4,62.3c-4,2-13.1-6.9-13.1-10.2c0-3.3,3-14.4,5.9-24.4
			c2.9-10.1,9.8-50,9.8-50L455.1,90.3z"/>
		<path class="st5" d="M436.7,144.8c0.3-1.2,0.7-2.3,1-3.4c0.6-2,1.3-5.1,2.1-8.8c4.6,2.1,9.2,4.2,13.6,6.5c0.2,1.1,0.5,3.3,0.5,6.8
			C448.1,145.6,442.4,145.3,436.7,144.8z"/>
		<path class="st9" d="M420.4,129.8c0.8-2.7,5.4-1.6,10.4-0.1c3,0.9,18.7,6.9,23.6,8.9c0.7,0.3,1.1,0,1.8,0.2c1.2,0.3,5,1.4,4.5,6.7
			c-0.1,1.4-0.8,1.6-1.4,2.9c-0.4,1-1.6,1.5-2.3,1.7c-1,0.3-1.3,1.5-1.8,1.4c-1.2-0.3-1-3.5-1-4.6c0-0.7,0.4-3.5,0.4-3.5
			c-0.1-0.5-0.5-0.9-1.1-1c-4.3-0.8-22.7-3.9-25.8-4.9C422.9,135.9,419.6,132.5,420.4,129.8z"/>
		<g>
			<path class="st9" d="M458.7,60.5c5.7,0,7.9,4.1,8,11.6c0,2.8-1.2,5.6-2.3,7.4c-0.8,1.3-1,2.9-0.5,4.4l1.3,4.3
				c0.9,3.9-1,6.1-3.8,6.9c-1.4,0.4-3,0.1-4.2-0.7c-1.4-0.9-1.5-2.9-1.3-4.6l0.3-1.2c0.4-1.6-0.5-3.4-2.2-3.8c-4.4-1-5-5.6-6.2-12.7
				C446.6,64.6,453,60.5,458.7,60.5z"/>
			<path class="st10" d="M445.4,57.1l3.3,1c1.2,0.4,2.5,0.4,3.7,0l6.6-1.9c4,0,10.5,2.2,9.7,8l-0.7,4.1c-0.3,1.6-1.6,2.8-3.3,3l0,0
				c-0.2,0.6-0.7,0.9-1.2,0.9c-0.7,0-1.3-0.6-1.3-1.3l0,0c0-1.8-1.3-3.4-3.1-3.8c-2.2-0.5-4.5-0.6-7,0c-4.6,1.2-9.4-1.6-9.8-6.3
				c0-0.3,0-0.6,0-0.9C442.2,58.1,443.7,56.7,445.4,57.1z"/>
			<path class="st9" d="M463.5,72.2c0,1.7,0.7,3.2,2.3,3.2c1.7,0,2.8-2.4,2.8-4.2c0-1.7-1.1-2.2-2.8-2.2
				C464.2,69.1,463.5,70.5,463.5,72.2z"/>
		</g>
		<path class="st5" d="M449.7,91.7c0,0-3.6-2.3-9.9,3.8c-6.3,6.1-19.6,28.8-20.9,35.7s34.5,11.6,34.5,11.6c1-1.1,1.6-2.7,1.7-4.9
			c0,0-22.1-8.3-22.5-11.2s16.5-20.1,17.9-22.6C452.9,99.8,453.8,95,449.7,91.7z"/>
		<path class="st9" d="M459,140.2c0,0,4.3,3.9,4.4,4.2c0.3,0.7-0.5,1.5-1,0.9c-0.8-0.9-3.1-1.9-3.8-0.7L459,140.2z"/>
	</g>
	<path class="st11" d="M464.3,80c0,0-4.7,6.2-9.4,5c0,0,1.1,0.6,1.4,1.9C456.3,86.9,461.9,85.9,464.3,80z"/>
	<path class="st10" d="M446,275.7c0,0,6.6,1.4,9.5,0.3s3.7-2.3,3.7-2.3s2,4.1,0.7,6.1s-12.5,1.5-14.2,1.5s-7.1-0.4-7.1-0.4
		S437.5,275.9,446,275.7z"/>
	<path class="st10" d="M485.9,275.6c0,0,6.6,1.4,9.5,0.3s3.7-2.3,3.7-2.3s2,4.1,0.7,6.1s-12.5,1.5-14.2,1.5s-7.1-0.4-7.1-0.4
		S477.5,275.8,485.9,275.6z"/>
</g>
</svg>
