<?xml version="1.0" encoding="utf-8"?>
<!-- Generator: Adobe Illustrator 26.4.1, SVG Export Plug-In . SVG Version: 6.00 Build 0)  -->
<svg version="1.1" id="Layer_1" xmlns="http://www.w3.org/2000/svg" xmlns:xlink="http://www.w3.org/1999/xlink" x="0px" y="0px"
	 viewBox="0 0 250 250" style="enable-background:new 0 0 250 250;" xml:space="preserve">
<style type="text/css">
	.st0{fill:none;stroke:#C1C1C1;stroke-miterlimit:10;stroke-dasharray:11.9518,11.9518;}
	.st1{opacity:0.3;}
	.st2{fill:#FFFFFF;}
	.st3{fill:#D3D3D3;}
	.st4{fill:#6D4F6A;}
	.st5{fill:#F2F2F2;}
	.st6{fill:#2D1D2B;}
	.st7{fill:none;}
	.st8{fill:none;stroke:#D3D3D3;stroke-width:2;stroke-linecap:round;stroke-miterlimit:10;}
	.st9{fill:#80CEAD;}
	.st10{fill:#49B187;}
	.st11{fill:#FA5143;}
	.st12{fill:#AF2A23;}
	.st13{fill:#FCD2B1;}
	.st14{fill:#332231;}
	.st15{fill:#4F344B;}
	.st16{fill:#2D1C2B;}
	.st17{fill:#FFE3CA;}
	.st18{fill:#F7F7F7;}
	.st19{fill:#D1D1D1;}
	.st20{fill:#B7B7B7;}
	.st21{fill:#A8A8A8;}
</style>
<g>
	<circle class="st0" cx="200.2" cy="39" r="30.3"/>
</g>
<g class="st1">
	<path class="st2" d="M62.1,41.7c-6.7,2.4-13.3,5.2-18,9.7s-7,11-4.2,16.4c3.8,7.3,15.6,11.5,15.7,19.3c0,5.6-6.4,9.9-12.9,12
		s-13.7,2.8-19.6,5.8c-8.9,4.5-13.1,13.2-14.8,21.6c-1.8,8.7-1.1,18.6,6.6,24.9c9.5,7.8,25.2,7,38.7,5.3c17.9-2.2,35.8-4.8,53.7-7.5
		c39.2-5.7,78.3-11.5,117.5-17.2c4.2-0.6,8.6-1.3,12-3.4c6.8-4.1,7.4-12.6,3.4-18.6c-4-6.1-11.2-10.2-18.5-13.7
		c-7.2-3.5-14.9-6.9-20.3-12.2s-8.1-13-4-19c3.5-5.1,11-7.8,14.2-12.9c4.3-6.8-0.7-15.5-8.4-19.8C195.3,28.1,97.5,29.2,62.1,41.7z"
		/>
</g>
<path class="st3" d="M245.6,241.6H3.9c-1.4,0-2.6-1.2-2.6-2.6v-11.4c0-1.4,1.2-2.6,2.6-2.6h241.7c1.4,0,2.6,1.2,2.6,2.6V239
	C248.2,240.4,247,241.6,245.6,241.6z"/>
<g>
	<g>
		<path class="st4" d="M168.2,235.3H62.4c-7.5,0-13.6-7.1-13.6-15.9c0-4.4,1.5-8.4,4-11.2c2.5-2.9,5.9-4.7,9.6-4.7h105.8V235.3z"/>
		<path class="st5" d="M96.3,205.6h98.6c0.1,0,0.3,0.1,0.3,0.3v27c0,0.1-0.1,0.3-0.3,0.3H96.3c-6.8,0-12.3-5.5-12.3-12.3V218
			C84,211.1,89.5,205.6,96.3,205.6z"/>
		<path class="st6" d="M88.1,210.9c-1.9,2.2-3,5.2-3,8.5c0,6.7,4.6,12,10.3,12H201v3.9H95.2c-7.5,0-13.6-7.1-13.6-15.9
			c0-4.4,1.5-8.4,4-11.2c2.5-2.9,5.9-4.7,9.6-4.7H201v3.9H95.4C92.5,207.4,90,208.7,88.1,210.9z"/>
		<g>
			<g>
				<line class="st7" x1="96.5" y1="227.1" x2="191.4" y2="227.1"/>
				<line class="st8" x1="96.5" y1="227.1" x2="191.4" y2="227.1"/>
			</g>
			<g>
				<line class="st7" x1="96.5" y1="222.3" x2="191.4" y2="222.3"/>
				<line class="st8" x1="96.5" y1="222.3" x2="191.4" y2="222.3"/>
			</g>
			<g>
				<line class="st7" x1="96.5" y1="217.4" x2="191.4" y2="217.4"/>
				<line class="st8" x1="96.5" y1="217.4" x2="191.4" y2="217.4"/>
			</g>
			<g>
				<line class="st7" x1="96.5" y1="212.6" x2="191.4" y2="212.6"/>
				<line class="st8" x1="96.5" y1="212.6" x2="191.4" y2="212.6"/>
			</g>
		</g>
	</g>
	<g>
		<path class="st9" d="M87.1,203.5H188c7.2,0,13-5.6,13-12.4c0-3.4-1.4-6.6-3.8-8.8c-2.3-2.2-5.6-3.6-9.2-3.6H87.1V203.5z"/>
		<path class="st5" d="M156.8,180.3H61.6c-0.1,0-0.2,0.1-0.2,0.2v21.1c0,0.1,0.1,0.2,0.2,0.2h95.2c5.9,0,10.6-4.8,10.6-10.6v-0.3
			C167.4,185,162.7,180.3,156.8,180.3z"/>
		<path class="st10" d="M163.5,184.4c1.8,1.7,2.9,4.1,2.9,6.7c0,5.2-4.4,9.4-9.8,9.4H55.8v3h100.9c7.2,0,13-5.6,13-12.4
			c0-3.4-1.4-6.6-3.8-8.8s-5.6-3.6-9.2-3.6H55.8v3h100.8C159.2,181.6,161.7,182.7,163.5,184.4z"/>
		<g>
			<g>
				<line class="st7" x1="155.4" y1="199.3" x2="64.9" y2="199.3"/>
				<line class="st8" x1="155.4" y1="199.3" x2="64.9" y2="199.3"/>
			</g>
			<g>
				<line class="st7" x1="155.4" y1="194.4" x2="64.9" y2="194.4"/>
				<line class="st8" x1="155.4" y1="194.4" x2="64.9" y2="194.4"/>
			</g>
			<g>
				<line class="st7" x1="155.4" y1="189.6" x2="64.9" y2="189.6"/>
				<line class="st8" x1="155.4" y1="189.6" x2="64.9" y2="189.6"/>
			</g>
			<g>
				<line class="st7" x1="155.4" y1="184.8" x2="64.9" y2="184.8"/>
				<line class="st8" x1="155.4" y1="184.8" x2="64.9" y2="184.8"/>
			</g>
		</g>
	</g>
	<g>
		<path class="st11" d="M168.2,178.6H62.4c-7.5,0-13.6-7.1-13.6-15.9c0-4.4,1.5-8.4,4-11.2c2.5-2.9,5.9-4.7,9.6-4.7h105.8V178.6z"/>
		<path class="st5" d="M96.3,148.9h98.6c0.1,0,0.3,0.1,0.3,0.3v27c0,0.1-0.1,0.3-0.3,0.3H96.3c-6.8,0-12.3-5.5-12.3-12.3v-3
			C84,154.4,89.5,148.9,96.3,148.9z"/>
		<path class="st12" d="M88.1,154.2c-1.9,2.2-3,5.2-3,8.5c0,6.7,4.6,12,10.3,12H201v3.9H95.2c-7.5,0-13.6-7.1-13.6-15.9
			c0-4.4,1.5-8.4,4-11.2s5.9-4.7,9.6-4.7H201v3.9H95.4C92.5,150.6,90,152,88.1,154.2z"/>
		<g>
			<g>
				<line class="st7" x1="96.5" y1="170.4" x2="191.4" y2="170.4"/>
				<line class="st8" x1="96.5" y1="170.4" x2="191.4" y2="170.4"/>
			</g>
			<g>
				<line class="st7" x1="96.5" y1="165.5" x2="191.4" y2="165.5"/>
				<line class="st8" x1="96.5" y1="165.5" x2="191.4" y2="165.5"/>
			</g>
			<g>
				<line class="st7" x1="96.5" y1="160.7" x2="191.4" y2="160.7"/>
				<line class="st8" x1="96.5" y1="160.7" x2="191.4" y2="160.7"/>
			</g>
			<g>
				<line class="st7" x1="96.5" y1="155.9" x2="191.4" y2="155.9"/>
				<line class="st8" x1="96.5" y1="155.9" x2="191.4" y2="155.9"/>
			</g>
		</g>
	</g>
	<polygon class="st11" points="155.4,208.1 149.9,203.5 144.1,208.1 144.1,189.4 155.4,189.4 	"/>
</g>
<g>
	<g>
		<g>
			<path class="st13" d="M90.8,142c7.3,1.8,34.2,4.8,47.5,6.2c3,0.3,5.3,0.6,6.5,0.7c0.7,0.1,1.1,0.1,1.1,0.1s3.5-0.2,7.8-0.5
				c3.9-0.2,13-0.2,16.1-0.3c1.2,0,1.6-1.6,0.6-2.2c-1.9-1.1-9.6-4.2-13.4-4.7c-2.3-0.3-4.9-2.4-7-3.5c-1.6-0.9-3.4,0.7-4.8,1.2
				c-0.7,0.2-1.2,1.8-2,1.9c-0.2,0-0.4,0-0.6,0c-1,0-2,0-3-0.1c-0.3,0-0.5-0.1-0.8-0.1c-3.1-0.5-5.7-1.4-5.7-1.4
				c-9.5-4.9-30.5-18-46.8-14.5c-0.1,0-0.3,0-0.4,0.1c-0.1,0-0.3,0.1-0.4,0.1C69.1,128.9,81,139.5,90.8,142z"/>
			<path class="st14" d="M90.8,142c7.3,1.8,34.2,4.8,47.5,6.2l2.4-14c-0.5-0.1-1-0.1-1.5-0.1c-5.2-0.1-10.3-1.1-15-3.1
				c-10.8-4.6-26.1-9.2-38.7-6.1C69.1,128.9,81,139.5,90.8,142z"/>
		</g>
		<path class="st15" d="M149.2,138.1c0-1.4,1.7-2.2,1.7-2.2l13.1,4.8l7.1,3.8l1.4,2l-1.7,1.3l-14.6-2.1l-4.8-2.8L149.2,138.1z"/>
		<path class="st10" d="M142.6,140.9l2.3,7.9c0.7,0.1,1.1,0.1,1.1,0.1s3.5-0.2,7.8-0.5c3.9-0.2,13-0.2,16.1-0.3
			c1.2,0,1.6-1.6,0.6-2.2c-1.9-1.1-9.6-4.2-13.4-4.7c-2.3-0.3-4.9-2.4-7-3.5c-1.6-0.9-3.4,0.7-4.8,1.2c-0.7,0.2-1.2,1.8-2,1.9
			C143,140.9,142.8,140.9,142.6,140.9z"/>
	</g>
	<g>
		<g>
			<path class="st13" d="M164.8,138.9c-8.6,1.8-40,7.8-55.8,9.2c-3.5,0.3-6.3,0.6-7.8,0.7c-0.8,0.1-1.3,0.1-1.3,0.1
				s-4.1-0.2-9.2-0.5c-4.7-0.2-15.4-0.2-19.1-0.3c-1.4,0-1.9-1.6-0.7-2.2c2.2-1.1,11.4-4.2,15.9-4.7c2.8-0.3,5.8-2.4,8.3-3.5
				c1.9-0.9,4,0.7,5.7,1.2c0.8,0.2,1.4,1.8,2.4,1.9c0.2,0,0.5,0,0.7,0c1.2,0,2.4,0,3.5-0.1c0.3,0,0.7-0.1,1-0.1
				c3.7-0.5,6.8-1.4,6.8-1.4c11.3-4.9,36.2-18,55.6-14.5c0.2,0,0.3,0,0.5,0.1c0.1,0,0.3,0.1,0.5,0.1
				C191.2,128.9,176.4,136.5,164.8,138.9z"/>
			<path class="st14" d="M165.4,142c-8.6,1.8-40.6,4.8-56.5,6.2l-2.9-14c0.6-0.1,1.2-0.1,1.8-0.1c6.1-0.1,12.2-1.1,17.8-3.1
				c12.9-4.6,31-9.2,46-6.1C191.2,128.9,177.1,139.5,165.4,142z"/>
		</g>
		<path class="st15" d="M96.1,138.1c0-1.4-2-2.2-2-2.2l-15.5,4.8l-8.4,3.8l-1.7,2l2,1.3l17.3-2.1l5.7-2.8L96.1,138.1z"/>
		<path class="st10" d="M103.9,140.9l-2.7,7.9c-0.8,0.1-1.3,0.1-1.3,0.1s-4.1-0.2-9.2-0.5c-4.7-0.2-15.4-0.2-19.1-0.3
			c-1.4,0-1.9-1.6-0.7-2.2c2.2-1.1,11.4-4.2,15.9-4.7c2.8-0.3,5.8-2.4,8.3-3.5c1.9-0.9,4,0.7,5.7,1.2c0.8,0.2,1.4,1.8,2.4,1.9
			C103.4,140.9,103.6,140.9,103.9,140.9z"/>
	</g>
	<g>
		<path class="st11" d="M157.2,113.1c0,0.6,0,1.3,0,1.9H94c0-0.6,0-1.3,0-1.9c0-23.4,10.4-43,24.5-48.1c2.3-0.8,5,7.7,7.4,7.7
			c2.3,0,4.3-8.6,6.5-7.8C146.6,69.8,157.2,89.5,157.2,113.1z"/>
		<path class="st2" d="M132.4,64.9l-7,48.2l-7-48.1c2.3-0.8,4.7-1.3,7.2-1.3C127.9,63.8,130.2,64.2,132.4,64.9z"/>
		<polygon class="st13" points="129.4,68.4 125.5,74 121.6,68.4 120.7,57.3 130.2,57.3 		"/>
		<g>
			<path class="st16" d="M122.3,37.4c-1.9-3.3-1-7.8,1.6-10.6s6.6-4,10.4-3.8s7.5,1.6,10.8,3.5c3.6,2,7,4.5,9.2,8s2.8,8.1,0.9,11.8
				c-1,1.9-2.6,3.4-3.8,5.2c-1.2,1.8-2.1,4-1.4,6c0.8,2.3,3.3,3.5,4.4,5.7c1.1,2.3,0.1,5.4-2.1,6.8c-2.2,1.4-5.2,1.2-7.3-0.4
				c-2.1-1.5-3.2-4.2-3-6.8c0.1-2.3,1.2-4.5,2.2-6.6c1.1-2.1,2.2-4.2,2.7-6.5c0.4-2.3-0.1-4.9-1.9-6.5c-2.5-2.2-6.3-1.4-9.7-1.4
				c-5.3-0.1-10.4-2.8-13.4-7.1"/>
		</g>
		<path class="st15" d="M112.4,46.9c0-7.9,5.8-13.1,13-13.1c7.2,0,13,5.2,13,13.1s-5.8,14.3-13,14.3
			C118.2,61.1,112.4,54.7,112.4,46.9z"/>
		<path class="st17" d="M115.3,49.8c0-6.6,4.5-12,10.1-12c5.6,0,10.1,5.4,10.1,12s-4.5,13.1-10.1,13.1
			C119.8,62.9,115.3,56.4,115.3,49.8z"/>
		<g>
			<path class="st16" d="M119.7,41.8c4.9,4.9,11.3,7.3,17.4,6.4c-0.8-4.8-3.2-9.1-6.5-11.4c-3.3-2.3-7.5-2.6-10.9-0.5
				s-5.9,6.6-6.1,11.5c2.8,0.3,5.5-2.6,5.9-6.1"/>
		</g>
		
			<ellipse transform="matrix(0.9058 -0.4237 0.4237 0.9058 -11.4612 53.8762)" class="st17" cx="115.4" cy="52.7" rx="1.6" ry="2.9"/>
		
			<ellipse transform="matrix(0.4237 -0.9058 0.9058 0.4237 30.4094 153.2306)" class="st17" cx="135.6" cy="52.7" rx="2.9" ry="1.6"/>
		<circle class="st11" cx="116.4" cy="55.4" r="1"/>
		<circle class="st11" cx="134.5" cy="55.4" r="1"/>
	</g>
	<g>
		<g>
			<path class="st5" d="M124.3,109.2c0-4.5-11.5-17.3-25.8-16.1c0,3.5,1.5,8.2,1.5,8.2L124.3,109.2z"/>
			<path class="st18" d="M125.5,108.7c-2-3.5-11.5-14.8-30.9-14.6c0,4.7,2,7.2,2,7.2L125.5,108.7z"/>
			<path class="st19" d="M122.6,107.7c-4.7-4.7-17.5-10.7-30.5-10.1c0.2,11.3,0.8,36.9,0.8,36.9s24.7,2,29.7,5.6
				C122.6,135.1,122.6,107.7,122.6,107.7z"/>
			<path class="st5" d="M126.6,109.2c0-4.5,11.5-17.3,25.8-16.1c0,3.5-1.5,8.2-1.5,8.2L126.6,109.2z"/>
			<path class="st18" d="M125.5,108.7c2-3.5,11.5-14.8,30.9-14.6c0,4.7-2,7.2-2,7.2L125.5,108.7z"/>
			<path class="st19" d="M128.4,107.7c4.7-4.7,17.5-10.7,30.5-10.1c-0.2,11.3-0.8,36.9-0.8,36.9s-24.7,2-29.7,5.6
				C128.4,135.1,128.4,107.7,128.4,107.7z"/>
			<rect x="122.6" y="107.7" class="st20" width="5.8" height="32.4"/>
		</g>
		<rect x="124.3" y="107.7" class="st21" width="2.3" height="32.4"/>
	</g>
	<path class="st13" d="M91.1,107.7c0,0-2.5,7.6-1.7,8.5s6.8,5.4,6.8,5.4s0.6-6.8-1.5-8.9C92.4,110.6,91.1,107.7,91.1,107.7z"/>
	<path class="st13" d="M159.8,107.7c0,0,2.5,7.6,1.7,8.5c-0.8,1-6.8,5.4-6.8,5.4s-0.6-6.8,1.5-8.9
		C158.4,110.6,159.8,107.7,159.8,107.7z"/>
</g>
</svg>
